<svg xmlns="http://www.w3.org/2000/svg" viewBox="0 0 512 512">
  <defs>
    <linearGradient id="bgGrad" x1="0%" y1="0%" x2="0%" y2="100%">
      <stop offset="0%" style="stop-color:#1e293b;stop-opacity:1" />
      <stop offset="100%" style="stop-color:#0f172a;stop-opacity:1" />
    </linearGradient>
  </defs>
  <rect width="512" height="512" rx="128" fill="url(#bgGrad)"/>

  <g transform="translate(256, 256)" opacity="0.15">
    <polygon points="0,-180 156,-90 156,90 0,180 -156,90 -156,-90" 
             fill="none" stroke="#ffffff" stroke-width="40" stroke-linejoin="round"/>
    <circle r="90" fill="none" stroke="#ffffff" stroke-width="25"/>
  </g>

  <g transform="translate(256, 256) rotate(-45)">
    <ellipse rx="220" ry="70" fill="none" stroke="#94a3b8" stroke-width="18" opacity="0.6"/>
    <circle cx="220" cy="0" r="18" fill="#38bdf8"/>
  </g>

  <path d="M256 100 
           C 256 40, 340 40, 340 100 
           L 340 110 
           C 340 140, 300 140, 300 110 
           C 300 90, 286 90, 286 110 
           L 286 402 
           C 286 460, 200 460, 200 402 
           L 200 392 
           C 200 362, 240 362, 240 392 
           C 240 412, 256 412, 256 392 
           Z" 
        fill="#38bdf8"
        filter="drop-shadow(0px 10px 10px rgba(0,0,0,0.5))"/>

</svg>